<svg width="50" height="51" viewBox="0 0 50 51" fill="none" xmlns="http://www.w3.org/2000/svg">
<path d="M48.1687 18.9172L32.3667 3.10352C30.4109 1.15233 27.7618 0.0566406 25 0.0566406C22.2382 0.0566406 19.5891 1.15233 17.6333 3.10352L1.83127 18.9172C1.24883 19.4962 0.787045 20.1852 0.472696 20.9442C0.158348 21.7031 -0.00231333 22.517 2.51656e-05 23.3386V43.8029C2.51656e-05 45.4615 0.658505 47.0522 1.83061 48.225C3.00271 49.3978 4.59242 50.0566 6.25002 50.0566H43.75C45.4076 50.0566 46.9973 49.3978 48.1694 48.225C49.3415 47.0522 50 45.4615 50 43.8029V23.3386C50.0023 22.517 49.8416 21.7031 49.5273 20.9442C49.213 20.1852 48.7512 19.4962 48.1687 18.9172ZM31.25 45.8875H18.75V37.6867C18.75 36.0281 19.4085 34.4375 20.5806 33.2647C21.7527 32.0919 23.3424 31.433 25 31.433C26.6576 31.433 28.2473 32.0919 29.4194 33.2647C30.5915 34.4375 31.25 36.0281 31.25 37.6867V45.8875ZM45.8333 43.8029C45.8333 44.3558 45.6138 44.886 45.2231 45.2769C44.8324 45.6679 44.3025 45.8875 43.75 45.8875H35.4167V37.6867C35.4167 34.9224 34.3192 32.2713 32.3657 30.3166C30.4122 28.3619 27.7627 27.2638 25 27.2638C22.2373 27.2638 19.5878 28.3619 17.6343 30.3166C15.6808 32.2713 14.5833 34.9224 14.5833 37.6867V45.8875H6.25002C5.69748 45.8875 5.16758 45.6679 4.77688 45.2769C4.38618 44.886 4.16669 44.3558 4.16669 43.8029V23.3386C4.16862 22.7861 4.38791 22.2566 4.7771 21.8648L20.5792 6.05737C21.7535 4.88777 23.3431 4.23116 25 4.23116C26.6569 4.23116 28.2465 4.88777 29.4208 6.05737L45.2229 21.871C45.6106 22.2613 45.8297 22.7883 45.8333 23.3386V43.8029Z" fill="white"/>
</svg>
