<svg width="38" height="50" viewBox="0 0 38 50" fill="none" xmlns="http://www.w3.org/2000/svg">
<path d="M19 25C21.4723 25 23.889 24.2669 25.9447 22.8934C28.0003 21.5199 29.6024 19.5676 30.5485 17.2835C31.4946 14.9995 31.7422 12.4861 31.2598 10.0614C30.7775 7.63661 29.587 5.40933 27.8389 3.66117C26.0907 1.91301 23.8634 0.722505 21.4387 0.24019C19.0139 -0.242126 16.5006 0.0054161 14.2165 0.951511C11.9324 1.89761 9.98018 3.49976 8.60666 5.55538C7.23314 7.61099 6.50003 10.0277 6.50003 12.5C6.50334 15.8142 7.82136 18.9917 10.1649 21.3352C12.5083 23.6787 15.6858 24.9967 19 25ZM19 4.16667C20.6482 4.16667 22.2594 4.65541 23.6298 5.57109C25.0002 6.48677 26.0683 7.78826 26.699 9.31098C27.3298 10.8337 27.4948 12.5092 27.1732 14.1258C26.8517 15.7423 26.058 17.2271 24.8926 18.3926C23.7271 19.558 22.2423 20.3517 20.6258 20.6732C19.0093 20.9948 17.3337 20.8297 15.811 20.199C14.2883 19.5683 12.9868 18.5002 12.0711 17.1298C11.1554 15.7593 10.6667 14.1482 10.6667 12.5C10.6667 10.2899 11.5447 8.17025 13.1075 6.60745C14.6703 5.04465 16.7899 4.16667 19 4.16667Z" fill="white"/>
<path d="M19 29.1667C14.0289 29.1722 9.26298 31.1494 5.74787 34.6645C2.23276 38.1796 0.255545 42.9456 0.250031 47.9167C0.250031 48.4692 0.469524 48.9991 0.860225 49.3898C1.25093 49.7805 1.78083 50 2.33336 50C2.8859 50 3.4158 49.7805 3.8065 49.3898C4.1972 48.9991 4.4167 48.4692 4.4167 47.9167C4.4167 44.0489 5.95315 40.3396 8.68806 37.6047C11.423 34.8698 15.1323 33.3333 19 33.3333C22.8678 33.3333 26.5771 34.8698 29.312 37.6047C32.0469 40.3396 33.5834 44.0489 33.5834 47.9167C33.5834 48.4692 33.8029 48.9991 34.1936 49.3898C34.5843 49.7805 35.1142 50 35.6667 50C36.2192 50 36.7491 49.7805 37.1398 49.3898C37.5305 48.9991 37.75 48.4692 37.75 47.9167C37.7445 42.9456 35.7673 38.1796 32.2522 34.6645C28.7371 31.1494 23.9711 29.1722 19 29.1667Z" fill="white"/>
</svg>
