<svg width="36" height="38" viewBox="0 0 36 38" fill="none" xmlns="http://www.w3.org/2000/svg">
<path d="M22 24L33 35M14.5 3C12.2255 3 10.0021 3.67446 8.11095 4.9381C6.21978 6.20174 4.7458 7.99779 3.87539 10.0991C3.00498 12.2005 2.77724 14.5128 3.22097 16.7435C3.6647 18.9743 4.75997 21.0234 6.36828 22.6317C7.97658 24.24 10.0257 25.3353 12.2565 25.779C14.4872 26.2228 16.7995 25.995 18.9009 25.1246C21.0022 24.2542 22.7983 22.7802 24.0619 20.8891C25.3255 18.9979 26 16.7745 26 14.5C25.9998 11.4501 24.7881 8.52511 22.6315 6.36849C20.4749 4.21186 17.5499 3.00019 14.5 3Z" stroke="white" stroke-width="5" stroke-miterlimit="10" stroke-linecap="round"/>
</svg>
